<?xml version="1.0" encoding="UTF-8" standalone="no"?>
<!-- Created with Inkscape (http://www.inkscape.org/) -->

<svg
   xmlns:dc="http://purl.org/dc/elements/1.1/"
   xmlns:cc="http://creativecommons.org/ns#"
   xmlns:rdf="http://www.w3.org/1999/02/22-rdf-syntax-ns#"
   xmlns:svg="http://www.w3.org/2000/svg"
   xmlns="http://www.w3.org/2000/svg"
   xmlns:sodipodi="http://sodipodi.sourceforge.net/DTD/sodipodi-0.dtd"
   xmlns:inkscape="http://www.inkscape.org/namespaces/inkscape"
   width="117.48122"
   height="124.32971"
   id="svg2"
   version="1.1"
   inkscape:version="0.48.5 r10040"
   sodipodi:docname="scipylatam.svg">
  <defs
     id="defs4">
    <linearGradient
       id="linearGradient4024">
      <stop
         id="stop4026"
         offset="0"
         style="stop-color:#a1a4ce;stop-opacity:1;" />
      <stop
         id="stop4028"
         offset="1"
         style="stop-color:#ffffff;stop-opacity:1;" />
    </linearGradient>
  </defs>
  <sodipodi:namedview
     id="base"
     pagecolor="#ffffff"
     bordercolor="#666666"
     borderopacity="1.0"
     inkscape:pageopacity="0.0"
     inkscape:pageshadow="2"
     inkscape:zoom="1.979899"
     inkscape:cx="184.80177"
     inkscape:cy="126.02983"
     inkscape:document-units="px"
     inkscape:current-layer="layer1"
     showgrid="false"
     fit-margin-top="0"
     fit-margin-left="0"
     fit-margin-right="0"
     fit-margin-bottom="0"
     inkscape:window-width="1366"
     inkscape:window-height="717"
     inkscape:window-x="0"
     inkscape:window-y="27"
     inkscape:window-maximized="1" />
  <metadata
     id="metadata7">
    <rdf:RDF>
      <cc:Work
         rdf:about="">
        <dc:format>image/svg+xml</dc:format>
        <dc:type
           rdf:resource="http://purl.org/dc/dcmitype/StillImage" />
        <dc:title></dc:title>
      </cc:Work>
    </rdf:RDF>
  </metadata>
  <g
     inkscape:label="Capa 1"
     inkscape:groupmode="layer"
     id="layer1"
     transform="translate(-325.74152,-197.73919)">
    <path
       style="fill:#87aade;fill-opacity:1;fill-rule:evenodd"
       inkscape:connector-curvature="0"
       id="path9-6"
       d="m 402.58092,274.10566 c -3.83747,-5.28287 -9.70153,-7.48551 -18.08317,-9.2615 l -7.7936,-1.8497 -5.87952,-2.53785 c -3.09018,-2.19823 -5.72311,-8.0496 -4.97583,-13.20928 1.16108,-7.99321 8.57925,-13.56488 16.57075,-12.4418 3.99098,0.56809 7.37538,2.6948 9.60687,5.68866 l 8.84858,11.70035 c 5.05768,6.55578 10.74417,8.5069 16.93049,5.4112 l 3.11908,-1.33556 c 0.24987,-0.11698 0.54281,-0.12792 0.82714,-0.0238 0.23254,0.0908 0.42215,0.25794 0.53419,0.45532 l 0.62047,0.94082 c 0.17238,0.2839 0.43078,0.51369 0.76689,0.64175 0.56866,0.21685 1.1805,0.0868 1.61131,-0.28611 l 7.18567,-6.82044 c 1.25792,-1.08399 0.88738,-2.07898 0.88738,-2.07898 l -1.73192,-3.96954 c 0,0 -0.47377,-0.9517 -2.11087,-0.7328 l -9.63269,0.89108 c -0.56003,0.0801 -1.05983,0.45531 -1.27511,1.02764 -0.12912,0.33388 -0.13767,0.68284 -0.043,0.99941 l 0.34475,1.11644 c 0.0689,0.23207 0.0689,0.49218 -0.0257,0.73059 -0.11199,0.2948 -0.3359,0.50306 -0.60304,0.6136 l -2.72268,1.15993 c -2.85196,1.68007 -6.09147,0.60692 -8.25415,-2.05522 l -2.4728,-3.30621 -7.03927,-9.40247 c -3.34296,-4.4617 -8.38339,-7.64426 -14.33701,-8.48096 -11.92024,-1.68007 -22.98309,6.62748 -24.71502,18.55539 -0.87456,6.01167 0.91581,11.69992 4.18307,16.26818 2.37378,3.31952 6.7243,5.21603 9.07734,5.80833 l 6.17595,1.77596 5.91436,1.36416 c 0.81345,0.19426 3.10185,0.76325 4.45614,1.25564 1.25194,0.45619 4.13566,1.52622 6.47924,3.4565 l 0,0 c 2.80013,2.86506 4.2821,6.95827 3.65329,11.25081 -1.05986,7.31901 -7.8492,12.41806 -15.16416,11.386 -3.66388,-0.51169 -6.75714,-2.46615 -8.80554,-5.20314 l -8.45221,-11.29058 c -1.72332,-2.30144 -4.32954,-3.94556 -7.40982,-4.388 -3.07582,-0.43358 -6.05264,0.42489 -8.35957,2.16447 l -17.78122,13.35444 c -4.43784,-7.92217 -6.96446,-17.0276 -6.96446,-26.71378 0,-30.55679 25.12857,-55.33632 56.12233,-55.33632 23.07798,0 42.88622,13.73163 51.5107,33.35596 l 2.84336,-1.33112 1.92138,-5.2855 2.01623,0.71104 -1.73193,4.72607 4.79915,1.665 -0.72367,1.97933 -5.35917,-1.88387 -2.95519,1.36794 c 2.44699,6.21549 3.80832,12.96419 3.80832,20.03123 0,30.55925 -25.13277,55.33453 -56.12894,55.33453 -18.61916,0 -35.12108,-8.94402 -45.3288,-22.70607 l 18.21418,-13.74117 c 0.83354,-0.57232 1.86755,-0.83247 2.9402,-0.68508 1.14167,0.16478 2.11305,0.76833 2.75072,1.6217 l 8.94124,12.09373 c 3.14905,3.88851 7.72431,6.64258 13.0813,7.40048 11.26979,1.58684 21.7296,-6.26963 23.36668,-17.55176 0.75788,-5.24996 -0.51723,-10.3195 -3.24855,-14.39515"
       clip-rule="evenodd" />
    <path
       clip-rule="evenodd"
       d="m 402.58092,274.10566 c -3.83747,-5.28287 -9.70153,-7.48551 -18.08317,-9.2615 l -7.7936,-1.8497 -5.87952,-2.53785 c -3.09018,-2.19823 -5.72311,-8.0496 -4.97583,-13.20928 1.16108,-7.99321 8.57925,-13.56488 16.57075,-12.4418 3.99098,0.56809 7.37538,2.6948 9.60687,5.68866 l 8.84858,11.70035 c 5.05768,6.55578 10.74417,8.5069 16.93049,5.4112 l 3.11908,-1.33556 c 0.24987,-0.11698 0.54281,-0.12792 0.82714,-0.0238 0.23254,0.0908 0.42215,0.25794 0.53419,0.45532 l 0.62047,0.94082 c 0.17238,0.2839 0.43078,0.51369 0.76689,0.64175 0.56866,0.21685 1.1805,0.0868 1.61131,-0.28611 l 7.18567,-6.82044 c 1.25792,-1.08399 0.88738,-2.07898 0.88738,-2.07898 l -1.73192,-3.96954 c 0,0 -0.47377,-0.9517 -2.11087,-0.7328 l -9.63269,0.89108 c -0.56003,0.0801 -1.05983,0.45531 -1.27511,1.02764 -0.12912,0.33388 -0.13767,0.68284 -0.043,0.99941 l 0.34475,1.11644 c 0.0689,0.23207 0.0689,0.49218 -0.0257,0.73059 -0.11199,0.2948 -0.3359,0.50306 -0.60304,0.6136 l -2.72268,1.15993 c -2.85196,1.68007 -6.09147,0.60692 -8.25415,-2.05522 l -2.4728,-3.30621 -7.03927,-9.40247 c -3.34296,-4.4617 -8.38339,-7.64426 -14.33701,-8.48096 -11.92024,-1.68007 -22.98309,6.62748 -24.71502,18.55539 -0.87456,6.01167 0.91581,11.69992 4.18307,16.26818 2.37378,3.31952 6.7243,5.21603 9.07734,5.80833 l 6.17595,1.77596 5.91436,1.36416 c 0.81345,0.19426 3.10185,0.76325 4.45614,1.25564 1.25194,0.45619 4.13566,1.52622 6.47924,3.4565 l 0,0 c 2.80013,2.86506 4.2821,6.95827 3.65329,11.25081 -1.05986,7.31901 -7.8492,12.41806 -15.16416,11.386 -3.66388,-0.51169 -6.75714,-2.46615 -8.80554,-5.20314 l -8.45221,-11.29058 c -1.72332,-2.30144 -4.32954,-3.94556 -7.40982,-4.388 -3.07582,-0.43358 -6.05264,0.42489 -8.35957,2.16447 l -17.78122,13.35444 c -4.43784,-7.92217 -6.96446,-17.0276 -6.96446,-26.71378 0,-30.55679 25.12857,-55.33632 56.12233,-55.33632 23.07798,0 42.88622,13.73163 51.5107,33.35596 l 2.84336,-1.33112 1.92138,-5.2855 2.01623,0.71104 -1.73193,4.72607 4.79915,1.665 -0.72367,1.97933 -5.35917,-1.88387 -2.95519,1.36794 c 2.44699,6.21549 3.80832,12.96419 3.80832,20.03123 0,6.28467 -1.06297,12.32471 -3.0213,17.95493 -0.244,0.70151 -0.5019,1.39665 -0.77337,2.08512 -8.14433,20.65398 -28.50686,35.29448 -52.33427,35.29448 -18.61916,0 -35.12108,-8.94402 -45.3288,-22.70607 l 18.21418,-13.74117 c 0.83354,-0.57232 1.86755,-0.83247 2.9402,-0.68508 1.14167,0.16478 2.11305,0.76833 2.75072,1.6217 l 8.94124,12.09373 c 3.14905,3.88851 7.72431,6.64258 13.0813,7.40048 11.26979,1.58684 21.7296,-6.26963 23.36668,-17.55176 0.75788,-5.24996 -0.51723,-10.3195 -3.24855,-14.39515"
       id="path3765"
       inkscape:connector-curvature="0"
       style="fill:#87aade;fill-opacity:1;fill-rule:evenodd"
       sodipodi:nodetypes="cccccccccccccccccccccccccccccccccccccccccccccsscccccccccsssscccccccc" />
    <g
       id="g3751"
       style="fill:#2e3e8d;fill-opacity:1"
       transform="matrix(0.28616096,0,0,0.28616096,247.95532,188.34715)">
      <path
         inkscape:connector-curvature="0"
         id="path3725"
         d="m 470.52597,366.07647 c -1.15357,-3.85 -3.02755,-10.10494 -4.16439,-13.89987 l -2.06699,-6.89988 -12.43301,-3.25724 c -6.83816,-1.79148 -12.43301,-3.57317 -12.43301,-3.95932 0,-0.38615 5.81118,-1.9625 12.91373,-3.50301 l 12.91372,-2.80092 2.10745,-9.08988 c 1.15909,-4.99943 2.90003,-11.74886 3.86874,-14.99872 l 1.76129,-5.90884 3.32195,14.40884 c 1.82707,7.92486 3.61246,14.71715 3.96753,15.09398 0.35508,0.37683 7.06193,2.13549 14.90412,3.90814 7.8422,1.77264 14.10805,3.37347 13.92412,3.5574 -0.18392,0.18393 -5.92526,1.47068 -12.75853,2.85945 -6.83327,1.38877 -13.1465,2.75178 -14.02941,3.02892 -1.1038,0.34646 -2.79095,4.87084 -5.40054,14.48241 -2.08738,7.6882 -3.90866,13.97854 -4.0473,13.97854 -0.13864,0 -1.1959,-3.15 -2.34947,-7 z"
         style="fill:#2e3e8d;fill-opacity:1" />
      <path
         inkscape:connector-curvature="0"
         id="path3723"
         d="m 344.92462,185.49848 c -2.13197,-7.44644 -4.24694,-13.76805 -4.69994,-14.04802 -0.453,-0.27997 -4.07994,-1.39547 -8.05987,-2.47889 -3.97993,-1.08342 -9.71124,-2.69118 -12.73624,-3.57279 l -5.5,-1.60293 13,-2.90983 c 7.15,-1.6004 13.34958,-3.25934 13.77684,-3.68653 0.42726,-0.42718 2.3553,-6.81712 4.28453,-14.19986 1.92923,-7.38274 3.64068,-13.86875 3.80323,-14.41336 0.16254,-0.54461 1.94716,5.71805 3.96582,13.91702 2.01865,8.19896 3.78262,14.99353 3.91993,15.09902 0.13731,0.1055 6.99264,1.69628 15.23406,3.53507 l 14.98441,3.34325 -14.88925,3.09562 -14.88926,3.09562 -3.8135,13.83731 c -2.09742,7.61052 -3.96897,13.99278 -4.15898,14.1828 -0.19002,0.19001 -2.08982,-5.74706 -4.22178,-13.1935 z"
         style="fill:#2e3e8d;fill-opacity:1" />
      <path
         inkscape:connector-curvature="0"
         id="path3721"
         d="m 540.78887,150.33448 -4.02173,-13.62391 -13.18725,-3.46575 c -7.25299,-1.90616 -13.04866,-3.60434 -12.87928,-3.77373 0.16939,-0.16939 5.91498,-1.52148 12.76797,-3.00464 6.853,-1.48316 12.93067,-3.19015 13.50595,-3.79332 0.57527,-0.60316 2.5884,-7.27353 4.47362,-14.82304 1.88521,-7.54951 3.73163,-13.399512 4.10314,-13.000002 0.37151,0.399509 1.83888,5.966162 3.26081,12.370342 3.9352,17.72355 2.24994,15.92218 17.9996,19.2397 7.48928,1.57755 13.61687,3.19608 13.61687,3.59672 0,0.40064 -5.93477,1.91705 -13.18837,3.3698 -7.25361,1.45276 -13.50249,3.14962 -13.88641,3.77082 -0.38393,0.6212 -2.16959,6.71507 -3.96815,13.54194 -1.79856,6.82687 -3.56371,12.59395 -3.92257,12.81574 -0.35886,0.22178 -2.46225,-5.72751 -4.6742,-13.22067 z"
         style="fill:#2e3e8d;fill-opacity:1" />
      <path
         inkscape:connector-curvature="0"
         id="path3717"
         d="m 435.50656,97.407329 c -0.63815,-2.656974 -2.41546,-8.855338 -3.94957,-13.774144 l -2.78928,-8.943283 -10.41957,-2.785471 c -5.73076,-1.532009 -11.74661,-3.155186 -13.36854,-3.607061 -2.53496,-0.706246 -1.14131,-1.235699 9.9268,-3.771246 7.08168,-1.622311 13.39531,-3.468395 14.0303,-4.10241 0.63499,-0.634014 2.67688,-7.265055 4.53755,-14.735646 1.86066,-7.470591 3.68497,-13.251852 4.05401,-12.847246 0.36904,0.404605 1.94925,6.542673 3.51158,13.640151 1.56233,7.097478 3.38283,13.446742 4.04557,14.109476 0.66273,0.662734 7.30449,2.489781 14.75946,4.060103 7.45497,1.570322 13.22356,3.158909 12.81909,3.530192 -0.40446,0.371284 -6.58539,1.882054 -13.73539,3.357267 -7.15,1.475214 -13.256,2.987363 -13.56889,3.360332 -0.31289,0.372969 -2.05784,6.303125 -3.87766,13.178125 -1.81983,6.875 -3.64771,12.873892 -4.06197,13.330862 -0.41426,0.45697 -1.27533,-1.34303 -1.91349,-4.000001 z"
         style="fill:#2e3e8d;fill-opacity:1" />
    </g>
  </g>
</svg>
